<svg id="Layer_1" enable-background="new 0 0 512 512" height="512" viewBox="0 0 512 512" width="512" xmlns="http://www.w3.org/2000/svg"><g><path d="m261.298 10.641 15.966 29.193c.554 1.013 1.387 1.846 2.401 2.401l29.193 15.966c4.188 2.291 4.188 8.306 0 10.597l-29.193 15.966c-1.013.554-1.846 1.387-2.401 2.401l-15.966 29.193c-2.291 4.188-8.306 4.188-10.597 0l-15.966-29.193c-.554-1.013-1.387-1.846-2.401-2.401l-29.193-15.966c-4.188-2.291-4.188-8.306 0-10.597l29.193-15.966c1.013-.554 1.846-1.387 2.401-2.401l15.966-29.193c2.291-4.188 8.307-4.188 10.597 0z" fill="#fca309"/><path d="m308.859 58.202-29.193-15.966c-1.013-.554-1.846-1.387-2.4-2.401l-15.967-29.193c-2.291-4.188-8.306-4.188-10.597 0l-7.19 13.146 4.908 8.974c3.08 5.632 7.71 10.262 13.342 13.342 13.751 7.521 13.751 27.271 0 34.792-5.632 3.08-10.262 7.71-13.342 13.342l-4.908 8.974 7.19 13.146c2.291 4.188 8.306 4.188 10.597 0l15.967-29.193c.554-1.013 1.387-1.846 2.4-2.401l29.193-15.966c4.188-2.29 4.188-8.306 0-10.596z" fill="#fd8e09"/><path d="m68.798 95.696 15.966 29.193c.554 1.013 1.387 1.846 2.401 2.401l29.193 15.966c4.188 2.291 4.188 8.306 0 10.597l-29.193 15.967c-1.013.554-1.846 1.387-2.401 2.401l-15.966 29.193c-2.291 4.188-8.306 4.188-10.597 0l-15.966-29.194c-.554-1.013-1.387-1.846-2.401-2.401l-29.193-15.966c-4.188-2.291-4.188-8.306 0-10.597l29.193-15.966c1.013-.554 1.846-1.387 2.401-2.401l15.966-29.193c2.291-4.188 8.307-4.188 10.597 0z" fill="#fca309"/><path d="m116.359 143.257-29.194-15.967c-1.013-.554-1.846-1.387-2.4-2.401l-15.967-29.193c-2.291-4.188-8.306-4.188-10.597 0l-7.19 13.146 4.908 8.974c3.08 5.632 7.71 10.262 13.342 13.342 13.751 7.521 13.751 27.271 0 34.792-5.632 3.08-10.262 7.71-13.342 13.342l-4.908 8.974 7.19 13.146c2.291 4.188 8.306 4.188 10.597 0l15.967-29.193c.554-1.013 1.387-1.846 2.4-2.401l29.193-15.966c4.189-2.289 4.189-8.305.001-10.595z" fill="#fd8e09"/><path d="m453.798 136.102 15.966 29.193c.554 1.013 1.387 1.846 2.401 2.401l29.193 15.966c4.188 2.291 4.188 8.306 0 10.597l-29.193 15.966c-1.013.554-1.846 1.387-2.401 2.401l-15.966 29.193c-2.291 4.188-8.306 4.188-10.597 0l-15.966-29.193c-.554-1.013-1.387-1.846-2.401-2.401l-29.193-15.966c-4.188-2.291-4.188-8.306 0-10.597l29.193-15.966c1.013-.554 1.846-1.387 2.401-2.401l15.966-29.193c2.291-4.189 8.307-4.189 10.597 0z" fill="#fca309"/><path d="m501.359 183.662-29.193-15.966c-1.013-.554-1.846-1.387-2.4-2.401l-15.967-29.193c-2.291-4.188-8.306-4.188-10.597 0l-7.19 13.146 4.908 8.974c3.08 5.632 7.71 10.262 13.342 13.342 13.751 7.521 13.751 27.271 0 34.792-5.632 3.08-10.262 7.71-13.342 13.342l-4.908 8.974 7.19 13.146c2.291 4.188 8.306 4.188 10.597 0l15.967-29.193c.554-1.013 1.387-1.846 2.4-2.401l29.193-15.966c4.188-2.29 4.188-8.306 0-10.596z" fill="#fd8e09"/><g fill="#f13555"><path d="m300.169 503.713c1.125-23.823 9.643-116.194 73.736-245.968 5.236-10.601 18.917-13.665 28.136-6.261 7.435 5.972 9.11 16.631 3.839 24.578-21.026 31.701-72.01 115.628-104.234 227.886-.247.862-1.519.661-1.477-.235z"/><path d="m220.131 503.696c-3.08-40.58-18.91-199.837-82.683-296.995-5.806-8.846-17.88-10.933-26.278-4.498-7.806 5.981-9.452 17.089-3.684 25.054 22.308 30.806 74.119 115.302 111.161 276.652.208.909 1.554.716 1.484-.213z"/><path d="m254.512 503.786-16.842-318.212c-.556-10.504 7.811-19.326 18.33-19.326 10.552 0 18.931 8.876 18.325 19.41l-18.309 318.132c-.055.949-1.454.946-1.504-.004z"/></g><g><path d="m78.292 364.8c-4.142 0-7.5 3.358-7.5 7.5v4.9c0 4.142 3.358 7.5 7.5 7.5s7.5-3.358 7.5-7.5v-4.9c0-4.142-3.358-7.5-7.5-7.5z"/><path d="m78.292 437.184c-4.142 0-7.5 3.358-7.5 7.5v4.9c0 4.142 3.358 7.5 7.5 7.5s7.5-3.358 7.5-7.5v-4.9c0-4.143-3.358-7.5-7.5-7.5z"/><path d="m102.179 394.582c1.918 0 3.836-.731 5.3-2.194l3.469-3.465c2.931-2.927 2.933-7.676.006-10.606-2.928-2.932-7.677-2.933-10.606-.006l-3.469 3.465c-2.931 2.927-2.933 7.676-.006 10.606 1.465 1.467 3.385 2.2 5.306 2.2z"/><path d="m49.104 429.495-3.469 3.465c-2.931 2.927-2.933 7.676-.006 10.606 1.465 1.467 3.385 2.2 5.306 2.2 1.918 0 3.836-.731 5.3-2.194l3.469-3.465c2.931-2.927 2.933-7.676.006-10.606-2.928-2.932-7.677-2.933-10.606-.006z"/><path d="m116.979 403.442h-4.905c-4.142 0-7.5 3.358-7.5 7.5s3.358 7.5 7.5 7.5h4.905c4.142 0 7.5-3.358 7.5-7.5s-3.358-7.5-7.5-7.5z"/><path d="m52.009 410.941c0-4.142-3.358-7.5-7.5-7.5h-4.906c-4.142 0-7.5 3.358-7.5 7.5s3.358 7.5 7.5 7.5h4.906c4.142 0 7.5-3.357 7.5-7.5z"/><path d="m107.479 429.495c-2.931-2.928-7.68-2.925-10.606.006-2.927 2.931-2.925 7.679.006 10.606l3.469 3.465c1.464 1.463 3.382 2.194 5.3 2.194 1.921 0 3.842-.733 5.306-2.2 2.927-2.931 2.925-7.679-.006-10.606z"/><path d="m56.235 378.311c-2.931-2.928-7.68-2.925-10.606.006-2.927 2.931-2.925 7.679.006 10.606l3.469 3.465c1.464 1.463 3.382 2.194 5.3 2.194 1.921 0 3.842-.733 5.306-2.2 2.927-2.931 2.925-7.679-.006-10.606z"/><path d="m415.43 30.749c4.142 0 7.5-3.358 7.5-7.5v-4.9c0-4.142-3.358-7.5-7.5-7.5s-7.5 3.358-7.5 7.5v4.9c0 4.142 3.358 7.5 7.5 7.5z"/><path d="m415.43 103.133c4.142 0 7.5-3.358 7.5-7.5v-4.9c0-4.142-3.358-7.5-7.5-7.5s-7.5 3.358-7.5 7.5v4.9c0 4.142 3.358 7.5 7.5 7.5z"/><path d="m439.318 40.632c1.918 0 3.836-.731 5.3-2.194l3.469-3.465c2.931-2.927 2.933-7.676.006-10.606-2.928-2.932-7.677-2.933-10.606-.006l-3.469 3.465c-2.931 2.927-2.933 7.676-.006 10.606 1.465 1.467 3.385 2.2 5.306 2.2z"/><path d="m386.243 75.544-3.469 3.464c-2.931 2.927-2.934 7.676-.007 10.606 1.465 1.467 3.386 2.2 5.307 2.2 1.918 0 3.836-.731 5.3-2.193l3.469-3.464c2.931-2.927 2.934-7.676.007-10.606-2.929-2.932-7.678-2.934-10.607-.007z"/><path d="m441.712 56.991c0 4.142 3.358 7.5 7.5 7.5h4.906c4.142 0 7.5-3.358 7.5-7.5s-3.358-7.5-7.5-7.5h-4.906c-4.142 0-7.5 3.358-7.5 7.5z"/><path d="m376.743 64.491h4.905c4.142 0 7.5-3.358 7.5-7.5s-3.358-7.5-7.5-7.5h-4.905c-4.142 0-7.5 3.358-7.5 7.5s3.358 7.5 7.5 7.5z"/><path d="m437.487 89.621c1.464 1.462 3.382 2.193 5.3 2.193 1.921 0 3.842-.733 5.307-2.2 2.927-2.931 2.924-7.679-.007-10.606l-3.469-3.464c-2.931-2.927-7.68-2.925-10.606.007-2.927 2.931-2.924 7.679.007 10.606z"/><path d="m386.242 38.438c1.464 1.463 3.382 2.194 5.3 2.194 1.921 0 3.842-.733 5.306-2.2 2.927-2.931 2.925-7.679-.006-10.606l-3.469-3.465c-2.931-2.928-7.68-2.925-10.606.006-2.927 2.931-2.925 7.679.006 10.606z"/><path d="m319.5 63.5c0-4.951-2.699-9.503-7.042-11.878l-28.818-15.762-15.762-28.818c-2.375-4.343-6.927-7.042-11.878-7.042s-9.503 2.699-11.878 7.042l-15.762 28.818-28.818 15.761c-4.344 2.375-7.042 6.927-7.042 11.878s2.699 9.503 7.042 11.878l28.818 15.761 15.761 28.818c2.375 4.344 6.927 7.042 11.878 7.042s9.503-2.699 11.878-7.042l15.761-28.818 28.818-15.761c4.345-2.374 7.044-6.926 7.044-11.877zm-43.432 14.684c-2.277 1.245-4.139 3.106-5.383 5.383l-14.685 26.849-14.684-26.848c-1.245-2.277-3.106-4.139-5.383-5.383l-26.85-14.685 26.849-14.684c2.277-1.245 4.139-3.106 5.383-5.383l14.685-26.85 14.684 26.848c1.245 2.277 3.106 4.139 5.383 5.383l26.85 14.684z"/><path d="m127 148.554c0-4.951-2.699-9.503-7.042-11.878l-28.818-15.761-15.761-28.818c-2.376-4.344-6.928-7.043-11.879-7.043s-9.503 2.699-11.878 7.043l-8.833 16.149c-1.988 3.634-.653 8.191 2.981 10.179 3.633 1.988 8.191.652 10.179-2.981l7.551-13.806 14.685 26.85c1.246 2.277 3.107 4.138 5.382 5.382l26.85 14.684-26.849 14.684c-2.277 1.245-4.138 3.105-5.383 5.382l-14.685 26.85-14.685-26.85c-1.245-2.276-3.106-4.137-5.382-5.381l-26.85-14.684 13.98-7.646c3.634-1.987 4.969-6.545 2.981-10.179-1.988-3.635-6.546-4.971-10.179-2.981l-16.324 8.928c-4.342 2.374-7.041 6.926-7.041 11.877s2.699 9.503 7.042 11.878l28.818 15.761 15.76 28.817c2.376 4.344 6.928 7.042 11.879 7.042s9.503-2.698 11.878-7.042l15.761-28.817 28.818-15.761c4.345-2.375 7.044-6.927 7.044-11.878z"/><path d="m504.958 177.081-22.896-12.522c-3.633-1.988-8.191-.652-10.179 2.981-1.988 3.634-.653 8.191 2.981 10.179l20.551 11.24-26.849 14.684c-2.277 1.245-4.138 3.105-5.383 5.382l-14.683 26.85-14.685-26.85c-1.245-2.276-3.106-4.137-5.382-5.381l-26.85-14.684 26.849-14.684c2.277-1.245 4.138-3.105 5.383-5.382l14.685-26.849 4.009 7.331c1.987 3.634 6.543 4.968 10.179 2.981 3.634-1.987 4.969-6.545 2.981-10.179l-5.291-9.674c-2.376-4.344-6.928-7.043-11.879-7.043s-9.503 2.699-11.878 7.043l-15.761 28.817-28.818 15.762c-4.344 2.375-7.042 6.927-7.042 11.877 0 4.951 2.698 9.503 7.042 11.879l28.818 15.761 15.76 28.817c2.376 4.344 6.928 7.042 11.879 7.042s9.503-2.698 11.878-7.042l15.761-28.817 28.819-15.762c4.343-2.376 7.042-6.928 7.042-11.879.001-4.951-2.698-9.503-7.041-11.878z"/><path d="m406.738 245.635c-6.165-4.951-14.127-6.811-21.848-5.103-7.74 1.712-14.195 6.775-17.709 13.891-64.378 130.352-73.301 223.493-74.503 248.934v.002c-.196 4.181 2.769 7.847 6.898 8.527.453.075.903.111 1.348.111 3.624 0 6.901-2.394 7.932-5.982 32.021-111.55 82.89-195.076 103.275-225.809 7.46-11.247 5.142-26.109-5.393-34.571zm-7.108 26.28c-16.058 24.209-50.682 80.571-80.628 157.372 9.822-42.615 28.002-100.139 61.628-168.222 1.49-3.017 4.224-5.163 7.5-5.887.792-.175 1.59-.262 2.382-.262 2.463 0 4.866.834 6.833 2.415 4.448 3.572 5.431 9.842 2.285 14.584z"/><path d="m227.609 503.125c-1.462-19.267-6.215-70.336-18.729-128.295-15.58-72.156-37.503-130.108-65.162-172.246-3.916-5.966-10.192-10.072-17.218-11.264-7.002-1.187-14.253.608-19.893 4.929-11.121 8.521-13.404 24.073-5.197 35.406 62.162 85.839 97.583 220.163 109.927 273.932.881 3.831 4.204 6.413 8.007 6.413.422 0 .851-.032 1.283-.098 4.31-.654 7.312-4.427 6.982-8.775zm-63.233-189.583c-20.301-44.987-38.84-74.146-50.817-90.686-3.405-4.702-2.452-11.16 2.171-14.702 1.886-1.445 4.123-2.201 6.441-2.201.603 0 1.21.051 1.819.155 2.974.504 5.526 2.176 7.187 4.706 26.642 40.589 47.851 96.836 63.04 167.181 2.135 9.886 4.041 19.572 5.739 28.922-10.71-33.398-22.598-64.607-35.58-93.375z"/><path d="m256 158.748c-7.166 0-13.828 2.863-18.759 8.062-4.932 5.199-7.439 12.003-7.061 19.16l16.842 318.211c.232 4.373 3.844 7.806 8.223 7.816h.02c4.37 0 7.988-3.413 8.24-7.779l14.75-256.318c.238-4.136-2.921-7.681-7.057-7.919-4.14-.231-7.681 2.921-7.919 7.057l-7.734 134.383-10.385-196.244c-.159-3.005.894-5.862 2.964-8.044 2.07-2.183 4.868-3.385 7.876-3.385 3.018 0 5.821 1.208 7.893 3.403 2.072 2.194 3.118 5.063 2.944 8.076l-1.702 29.57c-.238 4.135 2.921 7.68 7.057 7.918 4.118.235 7.68-2.921 7.918-7.057l1.702-29.569c.407-7.073-2.149-14.084-7.013-19.235-4.862-5.152-11.715-8.106-18.799-8.106z"/></g></g></svg>