<svg id="Layer_5" enable-background="new 0 0 64 64" height="512" viewBox="0 0 64 64" width="512" xmlns="http://www.w3.org/2000/svg"><g><g><g><path d="m47 62h-9v-12h16 .01c.07.66.46 1.24 1.06 1.54l.93.46v1 9z" fill="#969faa"/></g><g><path d="m38 37.82-2.66 1.45c-.88.48-1.86.73-2.86.73-1.59 0-3.11-.63-4.23-1.75l-8.25-8.25 4-4 8 8s3-3 6-4c1.2-.4 2.4-.64 3.4-.78l1.6 8.78 4-5 4 5 1.58-8.68c.02.01.03.01.05.01l2.83.35c1.65.21 3.18.96 4.35 2.13 1.4 1.4 2.19 3.3 2.19 5.28v9.91h-6l-1.43 1.43c-.37.37-.57.86-.57 1.37 0 .07 0 .14.01.2h-.01-16z" fill="#b4dd7f"/></g><g><path d="m52.58 29.32-1.58 8.68-4-5 3.53-4.94c.47.67 1.2 1.14 2.05 1.26z" fill="#a0d468"/></g><g><path d="m43.43 28.01 3.57 4.99-4 5-1.6-8.78c.02-.01.03-.01.05-.01.82-.12 1.52-.57 1.98-1.2z" fill="#a0d468"/></g><g><path d="m40 15v4c0 .34.02.68.08 1h-.01l-1.92-1.39c-1.35-1.01-2.15-2.6-2.15-4.29 0-2.08 1.04-4.01 2.76-5.16l.24-.16c1.21-3.02 4.13-5 7.39-5h1.22c1.63 0 3.17.5 4.46 1.37s2.33 2.12 2.93 3.63l.24.16c.86.58 1.55 1.34 2.02 2.23.48.89.74 1.89.74 2.93 0 1.69-.8 3.28-2.15 4.29l-1.92 1.39h-.01c.06-.32.08-.66.08-1v-4l-.32-.11c-1.76-.58-3.36-1.57-4.68-2.89-1.3.98-2.74 1.72-4.26 2.23s-3.12.77-4.74.77z" fill="#b27946"/></g><g><path d="m20 47c0 1.46-.45 2.81-1.22 3.94l-1.6-.32c-.2-.06-.38-.13-.56-.23-.78-.39-1.34-1.12-1.54-1.97v-.01c.88-.53 1.53-1.39 1.79-2.41h1.13c.55 0 1.05-.22 1.41-.59.37-.36.59-.86.59-1.41z" fill="#656d78"/></g><g><path d="m10.17 47.83c.23.22.48.42.75.58v.01c-.2.85-.76 1.58-1.54 1.98-.18.09-.36.16-.56.22l-1.6.32c-.77-1.13-1.22-2.48-1.22-3.94v-3c0 .55.22 1.05.59 1.41.36.37.86.59 1.41.59h1.13c.18.7.55 1.33 1.04 1.83z" fill="#656d78"/></g><g><path d="m20 41v3c0-1.1-.9-2-2-2h-1v-1c-1.32 0-2.61-.31-3.79-.89l-.21-.11-.21.11c-1.18.58-2.47.89-3.79.89v1h-1c-1.1 0-2 .9-2 2v-3c0-3.87 3.13-7 7-7s7 3.13 7 7z" fill="#656d78"/></g><g><path d="m9.38 50.4 1.04 4.6 1.58 7h-10v-6.73c0-1.9 1.34-3.54 3.21-3.92l2.01-.41 1.6-.32c.2-.06.38-.13.56-.22z" fill="#ff826e"/></g><g><path d="m18.78 50.94 2.01.41c1.87.38 3.21 2.02 3.21 3.92v6.73h-10l1.58-7 1.04-4.61c.18.1.36.17.56.23z" fill="#ff826e"/></g><g><path d="m15.58 55-1.58 7h-2l-1.58-7z" fill="#ffeaa7"/></g><g><path d="m15.08 48.42c.2.85.76 1.58 1.54 1.97l-1.04 4.61h-5.16l-1.04-4.6c.78-.4 1.34-1.13 1.54-1.98v-.01c.61.38 1.32.59 2.08.59s1.47-.21 2.08-.59z" fill="#f0d0b4"/></g><g><path d="m20 44c0 .55-.22 1.05-.59 1.41-.36.37-.86.59-1.41.59h-1.13c.09-.32.13-.65.13-1v-3h1c1.1 0 2 .9 2 2z" fill="#f0d0b4"/></g><g><path d="m9 42v3c0 .35.04.68.13 1h-1.13c-.55 0-1.05-.22-1.41-.59-.37-.36-.59-.86-.59-1.41 0-1.1.9-2 2-2z" fill="#f0d0b4"/></g><g><path d="m17 42v3c0 .35-.04.68-.13 1-.26 1.02-.91 1.88-1.79 2.41-.61.38-1.32.59-2.08.59s-1.47-.21-2.08-.59c-.27-.16-.52-.36-.75-.58-.49-.5-.86-1.13-1.04-1.83-.09-.32-.13-.65-.13-1v-3-1c1.32 0 2.61-.31 3.79-.89l.21-.11.21.11c1.18.58 2.47.89 3.79.89z" fill="#f0d0b4"/></g><g><path d="m62 47v6c0 1.1-.9 2-2 2h-2c-1.1 0-2-.9-2-2v-1l-.93-.46c-.6-.3-.99-.88-1.06-1.54-.01-.06-.01-.13-.01-.2 0-.51.2-1 .57-1.37l1.43-1.43z" fill="#f0d0b4"/></g><g><path d="m24 26-4 4h-5c-1.1 0-2-.9-2-2v-2c0-1.1.9-2 2-2h1l.2-.39c.49-.99 1.5-1.61 2.6-1.61.77 0 1.51.31 2.05.85z" fill="#f0d0b4"/></g><g><path d="m50 25.33v1.02c0 .63.2 1.22.53 1.71l-3.53 4.94-3.57-4.99c.36-.49.57-1.11.57-1.76v-.92-.01l3 .68c1.07 0 2.09-.24 3-.68z" fill="#f0d0b4"/></g><g><path d="m54 15v4c0 .34-.02.68-.08 1-.33 2.36-1.84 4.34-3.92 5.32-.91.44-1.93.68-3 .68l-3-.68c-.73-.34-1.39-.81-1.95-1.37-1.05-1.05-1.76-2.41-1.97-3.95-.06-.32-.08-.66-.08-1v-4c1.62 0 3.22-.26 4.74-.77s2.96-1.25 4.26-2.23c1.32 1.32 2.92 2.31 4.68 2.89z" fill="#f0d0b4"/></g><g><path d="m24 5v6.17c0 1.56-1.27 2.83-2.83 2.83h-1.17v2.59c0 .78-.63 1.41-1.41 1.41-.38 0-.74-.15-1-.41l-3.59-3.59h-7.17c-1.56 0-2.83-1.27-2.83-2.83v-6.17c0-1.66 1.34-3 3-3h14c1.66 0 3 1.34 3 3z" fill="#e6e9ed"/></g></g><g><path d="m60.519 31.105c-1.325-1.325-3.079-2.183-4.938-2.415l-2.829-.354c-.999-.125-1.752-.978-1.752-1.984v-.434c1.952-1.133 3.386-3.062 3.843-5.344l1.611-1.164c1.594-1.196 2.546-3.1 2.546-5.093 0-2.408-1.194-4.644-3.195-5.982-1.433-3.252-4.614-5.335-8.19-5.335h-1.229c-3.576 0-6.757 2.083-8.19 5.335-2.002 1.338-3.196 3.574-3.196 5.982 0 1.993.952 3.897 2.561 5.104l1.596 1.153c.457 2.282 1.891 4.211 3.843 5.344v.328c0 .99-.725 1.839-1.687 1.974-1.304.184-2.525.464-3.63.832-2.303.768-4.541 2.569-5.658 3.56l-8.025-8.026-2.442-2.442c-.738-.738-1.718-1.144-2.762-1.144-1.429 0-2.719.762-3.41 2h-.386c-1.654 0-3 1.346-3 3v2c0 1.654 1.346 3 3 3h4.586l7.957 7.957c1.317 1.317 3.069 2.043 4.933 2.043 1.164 0 2.319-.294 3.34-.852l1.184-.645v23.497h20v-7.184c.314.112.648.184 1 .184h2c1.654 0 3-1.346 3-3v-15.906c0-2.262-.881-4.389-2.481-5.989zm-9.851-1.52c.237.171.494.313.767.43l-1.027 5.645-2.155-2.694zm-13.668-15.268c0-1.742.865-3.358 2.314-4.325l.499-.333.116-.288c1.062-2.655 3.596-4.371 6.456-4.371h1.229c2.86 0 5.395 1.716 6.457 4.372l.116.288.499.333c1.449.965 2.314 2.582 2.314 4.324 0 1.367-.653 2.673-1.732 3.482l-.268.194v-3.714l-1-.333c-1.609-.537-3.093-1.454-4.292-2.653l-.613-.613-.695.52c-2.408 1.805-5.391 2.8-8.4 2.8h-1v3.993l-.253-.183c-1.094-.82-1.747-2.126-1.747-3.493zm4 4.683v-3.032c2.815-.18 5.568-1.112 7.913-2.681 1.198 1.049 2.592 1.878 4.087 2.428v3.285c0 3.309-2.691 6-6 6s-6-2.691-6-6zm6 8c.704 0 1.384-.101 2.035-.272.042.44.151.858.325 1.247l-2.36 3.304-2.391-3.347c.177-.377.295-.781.347-1.207.654.174 1.336.275 2.044.275zm-1.253 5.966-2.156 2.695-1.044-5.739c.261-.11.506-.245.735-.406zm-31.747-4.966v-2c0-.551.449-1 1-1h1.618l.473-.946c.325-.65.978-1.054 1.705-1.054.501 0 .993.204 1.348.558l2.442 2.442-3 3h-4.586c-.551 0-1-.449-1-1zm20.859 10.392c-.729.398-1.553.608-2.383.608-1.33 0-2.58-.518-3.52-1.458l-7.542-7.542 2.586-2.586 7.178 7.178.927 1.855 1.789-.895-.666-1.333c.949-.853 3.048-2.592 5.088-3.271.703-.234 1.478-.414 2.282-.567l1.811 9.958 4.591-5.738 4.591 5.739 1.801-9.908 1.941.242c1.42.178 2.76.833 3.772 1.845 1.222 1.222 1.895 2.847 1.895 4.575v8.906h-4v-8.586c0-.635.258-1.258.707-1.707l-1.414-1.414c-.834.833-1.293 1.942-1.293 3.121v9.172l-1.14 1.14c-.359.359-.601.799-.736 1.274h-14.124v-11.586c0-1.179-.459-2.288-1.293-3.121l-1.414 1.414c.406.406.645.956.689 1.528zm20.141 22.608h-7v-2.838c0-1.46.931-2.751 2.316-3.213l-.633-1.897c-1.112.371-2.037 1.078-2.684 1.986-.646-.907-1.572-1.615-2.684-1.986l-.633 1.897c1.387.462 2.318 1.753 2.318 3.213v2.838h-7v-10h14.253c.271.61.747 1.118 1.371 1.43l.376.188v.382zm5-7h-2c-.551 0-1-.449-1-1v-1-.618l-1.482-.741c-.319-.16-.518-.481-.518-.838 0-.25.098-.486.274-.663l1.14-1.14h4.586v5c0 .551-.449 1-1 1z"/><path d="m20.99 50.372-.688-.138c.45-1.014.698-2.107.698-3.234v-6c0-4.411-3.589-8-8-8s-8 3.589-8 8v6c0 1.126.248 2.219.698 3.233l-.688.139c-2.323.469-4.01 2.53-4.01 4.901v7.727h24v-7.727c0-2.371-1.687-4.432-4.01-4.901zm-3.54-.712c-.502-.143-.914-.479-1.17-.917.548-.481.999-1.067 1.296-1.743h.424c.352 0 .686-.072 1-.184v.184c0 .997-.257 1.959-.723 2.826zm-1.45-4.66c0 1.654-1.346 3-3 3s-3-1.346-3-3v-3.054c1.037-.111 2.055-.393 3-.833.945.439 1.963.722 3 .833zm-1.22 9h-3.561l-.711-3.148c.384-.309.704-.691.952-1.12.489.16 1 .268 1.54.268.541 0 1.052-.108 1.541-.268.246.423.566.8.953 1.11zm-.451 2-1.129 5h-.4l-1.129-5zm3.671-13c.551 0 1 .449 1 1s-.449 1-1 1zm-5-8c3.309 0 6 2.691 6 6v.184c-.314-.112-.648-.184-1-.184v-1h-1c-1.154 0-2.31-.273-3.342-.789l-.658-.329-.658.329c-1.032.516-2.188.789-3.342.789h-1v1c-.352 0-.686.072-1 .184v-.184c0-3.309 2.691-6 6-6zm-5 10c-.551 0-1-.449-1-1s.449-1 1-1zm-1 2v-.184c.314.112.648.184 1 .184h.424c.297.677.749 1.263 1.297 1.744-.252.436-.649.768-1.095.897l-.904.183c-.466-.867-.722-1.828-.722-2.824zm-4 8.273c0-1.422 1.012-2.659 2.406-2.941l3.238-.657 2.105 9.325h-7.749zm20 5.727h-7.749l2.104-9.322 3.239.654c1.394.282 2.406 1.519 2.406 2.941z"/><path d="m7 5h14v2h-14z"/><path d="m7 9h10v2h-10z"/><path d="m19 9h2v2h-2z"/><path d="m6.834 15h6.752l3.293 3.293c.456.456 1.062.707 1.707.707 1.331 0 2.414-1.083 2.414-2.414v-1.586h.166c2.114 0 3.834-1.72 3.834-3.834v-6.166c0-2.206-1.794-4-4-4h-14c-2.206 0-4 1.794-4 4v6.166c0 2.114 1.72 3.834 3.834 3.834zm-1.834-10c0-1.103.897-2 2-2h14c1.103 0 2 .897 2 2v6.166c0 1.011-.823 1.834-1.834 1.834h-2.166v3.586c0 .338-.469.531-.707.293l-3.879-3.879h-7.58c-1.011 0-1.834-.823-1.834-1.834z"/></g></g></svg>