<svg id="Capa_1" enable-background="new 0 0 512 512" height="512" viewBox="0 0 512 512" width="512" xmlns="http://www.w3.org/2000/svg"><g><g><g><g><g><path d="m470.227 460.173h-428.454v-255.956c0-11.424 9.261-20.686 20.686-20.686h387.083c11.424 0 20.686 9.261 20.686 20.686v255.956z" fill="#f4fbff"/><path d="m449.541 183.531h-63.3c11.424 0 20.686 9.261 20.686 20.686v255.956h63.3v-255.956c0-11.424-9.261-20.686-20.686-20.686z" fill="#e4f6ff"/><path d="m81.756 447.515v-210.269c0-7.584 6.148-13.732 13.732-13.732h321.025c7.584 0 13.732 6.148 13.732 13.732v210.269z" fill="#cbe2ff"/><path d="m430.244 447.515v-210.269c0-7.584-6.148-13.732-13.732-13.732h-9.585v224.001z" fill="#bed8fb"/><path d="m459.815 504.504h-407.63c-24.62 0-44.578-19.958-44.578-44.578 0-6.854 5.557-12.411 12.411-12.411h471.963c6.854 0 12.411 5.557 12.411 12.411 0 24.62-19.958 44.578-44.577 44.578z" fill="#d8e2f1"/><g fill="#b9cbea"><path d="m491.981 447.515h-50.889v24.348c0 18.027-14.614 32.641-32.64 32.641h51.362c24.62 0 44.578-19.958 44.578-44.578 0-6.855-5.556-12.411-12.411-12.411z"/><path d="m180.307 447.515c0 15.737 12.757 28.494 28.494 28.494h94.397c15.737 0 28.494-12.757 28.494-28.494z"/></g></g></g><g><g><path d="m247.473 89.644c0-10.776-8.735-19.511-19.511-19.511h-67.236c-24.8 0-44.904 20.104-44.904 44.904v49.855h158.409v-49.148c0-10.776-8.735-19.511-19.511-19.511h-.657c-3.64 0-6.59-2.95-6.59-6.589z" fill="#efc984"/><path d="m309.482 304.254-64.188-18.844h-100.483l-64.211 18.846c-23.017 6.755-38.827 27.873-38.827 51.86v91.398h306.532v-91.401c0-23.985-15.808-45.102-38.823-51.859z" fill="#4a80aa"/><path d="m309.482 304.254-64.188-18.844h-49.971l.455 25.416 50.403 15.584c23.015 6.757 38.823 27.873 38.823 51.859v69.246h63.3v-91.401c.001-23.986-15.807-45.103-38.822-51.86z" fill="#407093"/><path d="m204.833 347.558h-19.588l-17.69 99.807.081.15h54.923z" fill="#dd636e"/><g><g><g><g><g><path d="m230.292 303.145v-56.685h-70.531v56.685c0 19.477 35.266 21.208 35.266 21.208s35.265-1.731 35.265-21.208z" fill="#ffddce"/></g></g></g></g><path d="m274.231 158.35h-13.482c-7.498 0-13.576-6.078-13.576-13.576v-7.43c0-9.767-9.556-16.673-18.829-13.608-21.628 7.148-44.982 7.15-66.611.005l-.025-.008c-9.273-3.063-18.827 3.842-18.827 13.608v7.433c0 7.498-6.078 13.576-13.576 13.576h-13.482v22.201c0 5.673 4.599 10.272 10.272 10.272 1.79 0 3.246 1.402 3.359 3.188 2.166 34.34 30.687 61.526 65.574 61.526 34.887 0 63.408-27.186 65.574-61.526.113-1.786 1.569-3.188 3.359-3.188 5.673 0 10.272-4.599 10.272-10.272v-22.201z" fill="#ffddce"/><path d="m254.72 96.233h-.657c-3.639 0-6.589-2.95-6.589-6.59 0-10.776-8.735-19.511-19.511-19.511h-17.031v94.76h63.3v-49.148c-.001-10.775-8.737-19.511-19.512-19.511z" fill="#eabc6b"/><path d="m260.749 158.35c-7.498 0-13.576-6.078-13.576-13.576v-7.43c0-9.767-9.556-16.673-18.829-13.608-5.704 1.885-11.531 3.259-17.412 4.15v68.934c-.366 24.188-13.8 45.195-33.547 56.303 5.616 1.562 11.528 2.414 17.643 2.414 34.887 0 63.408-27.186 65.574-61.526.113-1.786 1.569-3.188 3.359-3.188 5.673 0 10.272-4.599 10.272-10.272v-22.201z" fill="#ffcbbe"/></g><g fill="#365e7d"><path d="m146.012 281.651-10.044 4.509c-5.733 2.574-7.117 10.09-2.677 14.537l27.816 27.858c3.528 3.435 9.082 3.646 12.861.49l21.811-18.22-37.186-27.787c-3.63-2.712-8.446-3.244-12.581-1.387z"/><path d="m231.44 283.213-35.66 27.613 20.5 17.528c3.756 3.211 9.335 3.05 12.899-.374l27.83-27.101c4.549-4.43 3.189-12.052-2.61-14.636l-10.239-4.562c-4.199-1.871-9.086-1.282-12.72 1.532z"/></g></g><path d="m195.78 310.826-21.478 17.937 10.943 18.795h19.588l10.943-19.611z" fill="#e28086"/></g></g><path d="m479.901 7.497h-121.443c-12.146 0-21.992 9.846-21.992 21.992v55.993c0 10.581 7.474 19.414 17.43 21.515 1.458.308 2.479 1.629 2.479 3.118v28.474c0 3.457 4.179 5.188 6.624 2.744l32.92-32.92c.601-.601 1.416-.939 2.266-.939h81.718c12.146 0 21.992-9.846 21.992-21.992v-55.992c-.001-12.146-9.848-21.993-21.994-21.993z" fill="#e28086"/><g fill="#dd636e"><path d="m356.373 110.116v28.474c0 3.457 4.179 5.188 6.624 2.744l32.92-32.92c.601-.601 1.416-.939 2.266-.939h-43.194c.846.581 1.384 1.564 1.384 2.641z"/><path d="m479.901 7.497h-63.3c12.146 0 21.992 9.846 21.992 21.992v55.993c0 12.146-9.846 21.992-21.992 21.992h63.3c12.146 0 21.992-9.846 21.992-21.992v-55.992c.001-12.146-9.846-21.993-21.992-21.993z"/></g></g><g><path d="m348.877 113.373v25.218c0 4.618 2.757 8.743 7.022 10.51 4.327 1.792 9.18.752 12.399-2.466l31.662-31.663h79.941c16.261 0 29.489-13.229 29.489-29.489v-55.994c0-16.26-13.228-29.489-29.489-29.489h-121.443c-16.261 0-29.489 13.229-29.489 29.489v55.993c-.001 12.645 8.184 23.853 19.908 27.891zm-4.915-83.884c0-7.993 6.503-14.496 14.496-14.496h121.444c7.993 0 14.496 6.503 14.496 14.496v55.993c0 7.993-6.503 14.496-14.496 14.496h-81.718c-2.856 0-5.542 1.112-7.568 3.133l-26.745 26.746v-19.742c0-5.027-3.544-9.423-8.428-10.453-6.652-1.403-11.48-7.367-11.48-14.179v-55.994z"/><path d="m491.982 440.018h-14.258v-235.802c0-15.54-12.642-28.182-28.182-28.182h-140.264c-4.141 0-7.497 3.356-7.497 7.497s3.356 7.497 7.497 7.497h140.263c7.272 0 13.189 5.916 13.189 13.189v235.802h-24.989v-202.773c0-11.705-9.523-21.228-21.228-21.228h-153.142c2.2-5.723 3.719-11.789 4.415-18.112 7.964-1.755 13.941-8.869 13.941-17.354 0-6.857 0-58.636 0-64.807 0-14.814-11.988-26.881-26.773-27.007-.479-14.475-12.404-26.102-26.993-26.102h-67.236c-28.894 0-52.401 23.507-52.401 52.401v65.515c0 8.485 5.977 15.599 13.942 17.354.696 6.324 2.215 12.389 4.415 18.112h-31.194c-11.705 0-21.228 9.523-21.228 21.228v61.239c-9.822 3.687-18.355 9.797-24.989 17.511v-111.78c0-7.272 5.916-13.189 13.189-13.189h18.694c4.141 0 7.497-3.356 7.497-7.497s-3.356-7.497-7.497-7.497h-18.694c-15.54 0-28.182 12.642-28.182 28.182v151.9 83.902h-14.259c-10.977 0-19.907 8.931-19.907 19.907 0 28.716 23.36 52.076 52.074 52.076h407.63c28.714 0 52.074-23.36 52.074-52.074 0-10.977-8.931-19.908-19.907-19.908zm-75.469-209.007c3.438 0 6.235 2.797 6.235 6.235v202.773h-66.945v-27.468c0-4.141-3.356-7.497-7.497-7.497s-7.497 3.356-7.497 7.497v27.468h-35.992v-23.789c0-4.141-3.356-7.497-7.497-7.497s-7.497 3.356-7.497 7.497v23.789h-60.98l-16.163-91.141 6.202-11.113c1.197.262 2.412.409 3.63.409 4.281 0 8.559-1.615 11.897-4.822l27.83-27.101c1.994-1.941 3.382-4.303 4.174-6.827l40.959 12.024c19.688 5.78 33.438 24.148 33.438 44.666v21.39c0 4.141 3.356 7.497 7.497 7.497s7.497-3.356 7.497-7.497v-21.39c0-27.127-18.179-51.41-44.208-59.053l-49.473-14.524c-1.362-1.301-2.939-2.37-4.671-3.141l-10.24-4.562c-3.017-1.345-6.249-1.892-9.422-1.687v-23.967c6.896-4.98 12.899-11.128 17.712-18.168h161.011zm-277.474 61.988 10.044-4.51c1.65-.74 3.574-.528 5.023.555l29.588 22.108-14.533 12.139c-.824.691-2.023.651-2.8-.085l-27.764-27.806v-.001c-.747-.746-.474-1.989.442-2.4zm83.756-35.466v22.894l-27.095 20.981-28.442-21.252v-22.622c17.56 7.234 37.481 7.438 55.537-.001zm28.554 35.559c.922.408 1.198 1.668.43 2.417l-27.793 27.064c-.787.757-2.004.792-2.833.083-.001 0-.001 0-.001 0l-13.499-11.543 28.379-21.974c1.451-1.126 3.397-1.359 5.076-.611zm-61.794 46.969-5.589-9.599 11.757-9.821 10.524 8.999-5.815 10.421zm1.975 14.993h7.018l15.068 84.964h-37.146zm131.258 99.958c-3.027 7.882-10.656 13.501-19.59 13.501h-94.397c-8.934 0-16.563-5.619-19.59-13.501zm-199.47-339.975c0-20.627 16.781-37.408 37.408-37.408h67.236c6.625 0 12.014 5.389 12.014 12.014 0 7.767 6.32 14.087 14.087 14.087h.657c6.625 0 12.014 5.389 12.014 12.014v35.109h-5.985c-3.352 0-6.079-2.727-6.079-6.079v-7.43c0-14.891-14.537-25.398-28.679-20.726-19.961 6.597-41.946 6.599-61.907.005-.023-.008-.054-.018-.084-.027-14.104-4.615-28.617 5.856-28.617 20.746v7.433c0 3.352-2.727 6.079-6.08 6.079h-5.985zm0 65.515v-14.705h5.985c11.62 0 21.074-9.453 21.074-21.073v-7.433c0-4.666 4.561-7.954 8.978-6.49.022.008.051.017.079.025 22.981 7.579 48.289 7.572 71.262-.022 4.416-1.463 8.98 1.818 8.98 6.49v7.43c0 11.62 9.453 21.073 21.073 21.073h5.985v14.705c0 1.531-1.245 2.775-2.774 2.775-5.716 0-10.479 4.485-10.842 10.213-1.927 30.561-27.443 54.501-58.091 54.501s-56.164-23.94-58.092-54.5c-.36-5.728-5.122-10.214-10.841-10.214-1.531 0-2.776-1.245-2.776-2.775zm-27.831 50.459h39.065c4.813 7.04 10.816 13.188 17.711 18.168v23.921c-3.148-.181-6.346.376-9.322 1.712l-10.044 4.509c-1.719.772-3.285 1.838-4.639 3.134l-39.006 11.449v-56.657c.001-3.439 2.797-6.236 6.235-6.236zm-46.217 125.105c0-20.52 13.751-38.887 33.441-44.667l1.22-.358c.028-.008.055-.016.083-.024l39.927-11.719c.778 2.433 2.123 4.72 4.046 6.647v-.001l27.816 27.858c.025.025.05.05.075.074 3.319 3.231 7.618 4.865 11.931 4.865 1.154 0 2.307-.132 3.444-.366l6.132 10.531-16.141 91.063h-61.014v-23.789c0-4.141-3.356-7.497-7.497-7.497s-7.497 3.356-7.497 7.497v23.789h-35.966zm410.545 140.891h-407.63c-20.446 0-37.081-16.634-37.081-37.081 0-2.71 2.204-4.914 4.914-4.914h153.583c3.459 16.259 17.925 28.494 35.2 28.494h94.397c17.275 0 31.741-12.235 35.2-28.494h153.583c2.71 0 4.914 2.204 4.914 4.914.001 20.446-16.634 37.081-37.08 37.081z"/></g></g></svg>